#File written by RizomUV 2025.0.41.g5f6d690c. Compilation :Jul 23 2025,17:26:59
mtllib Circle-light.mtl
#begin vertices
v -123.2331 0 -311.4358
v -101.9622 0 -257.5514
v -65.51775 0 -269.093
v -78.75509 0 -325.4726
v -163.6587 0 -292.1487
v -135.7182 0 -241.3862
v -202.614 0 -266.53
v -167.2736 0 -220.6852
v -237.0278 0 -236.4025
v -195.9081 0 -195.827
v -266.4987 0 -202.6563
v -220.6671 0 -167.2971
v -291.6846 0 -164.5369
v -241.3765 0 -135.7358
v -311.7569 0 -122.4792
v -257.6808 0 -101.6102
v -325.4483 0 -78.84573
v -269.0859 0 -65.54507
v -332.9756 0 -34.68778
v -275.4867 0 -28.34986
v -334.5568 0 11.84508
v -276.7886 0 9.477594
v -330.0323 0 56.40897
v -272.9205 0 47.01727
v -318.9813 0 101.9882
v -263.9621 0 83.71675
v -302.6624 0 143.4307
v -250.1103 0 118.872
v -279.7519 0 183.9984
v -231.6497 0 151.8636
v -252.0419 0 220.3401
v -208.7198 0 181.9902
v -220.3761 0 252.011
v -182.0077 0 208.7048
v -184.0411 0 279.725
v -151.8996 0 231.6249
v -143.4736 0 302.6437
v -118.9053 0 250.0941
v -102.0315 0 318.9662
v -83.75277 0 263.9508
v -56.45339 0 330.0239
v -47.05255 0 272.9149
v -11.88966 0 334.5551
v -9.513113 0 276.7878
v 34.64207 0 332.9808
v 28.31265 0 275.4909
v 78.80091 0 325.4604
v 65.5104 0 269.0949
v 122.4366 0 311.7727
v 101.5755 0 257.6935
v 164.4981 0 291.7051
v 135.7039 0 241.394
v 202.6221 0 266.524
v 167.2692 0 220.6886
v 236.3549 0 237.0754
v 195.8045 0 195.9294
v 267.1606 0 201.7595
v 220.6624 0 167.3033
v 291.6722 0 164.5603
v 241.3739 0 135.7405
v 311.7553 0 122.4836
v 257.6797 0 101.6133
v 325.4475 0 78.84865
v 269.0847 0 65.54956
v 332.9758 0 34.68642
v 275.4857 0 28.35819
v 334.5566 0 -11.84843
v 276.7891 0 -9.456379
v 330.0321 0 -56.41012
v 272.9215 0 -47.01108
v 318.9824 0 -101.9853
v 263.9634 0 -83.71265
v 302.6641 0 -143.427
v 250.1121 0 -118.8684
v 279.7528 0 -183.9969
v 231.6483 0 -151.8657
v 252.0442 0 -220.3374
v 208.7294 0 -181.979
v 220.3783 0 -252.009
v 182.0184 0 -208.6957
v 184.0429 0 -279.7239
v 151.9034 0 -231.6223
v 143.4767 0 -302.6424
v 118.9079 0 -250.0929
v 102.0359 0 -318.9646
v 83.75696 0 -263.9495
v 56.45876 0 -330.0229
v 47.05703 0 -272.9141
v 11.89723 0 -334.5548
v 9.519764 0 -276.7877
v -34.64425 0 -332.9805
v -28.30885 0 -275.4913
#end vertices

#begin 94 textures vertices 
vt 1 1 0
vt 2.039416e-20 1.335988e-14 0
vt 0.02207786 8.907807e-15 0
vt 0.02207786 1 0
vt 0.9784519 1 0
vt 0.9784519 2.060266e-14 0
vt 0.9565789 1 0
vt 0.9565789 2.060266e-14 0
vt 0.9348916 1 0
vt 0.9348916 2.045708e-14 0
vt 0.913416 1 0
vt 0.913416 2.033475e-14 0
vt 0.8916549 1 0
vt 0.8916549 2.039432e-14 0
vt 0.8696614 1 0
vt 0.8696614 1.988294e-14 0
vt 0.8478223 1 0
vt 0.8478223 2.061695e-14 0
vt 0.8262619 1 0
vt 0.8262619 2.004633e-14 0
vt 0.8045111 1 0
vt 0.8045111 1.993425e-14 0
vt 0.7830088 1 0
vt 0.7830088 2.007989e-14 0
vt 0.7610792 1 0
vt 0.7610792 1.986989e-14 0
vt 0.7393428 1 0
vt 0.7393428 2.013428e-14 0
vt 0.7174098 1 0
vt 0.7174098 1.878394e-14 0
vt 0.6957156 1 0
vt 0.6957156 2.012232e-14 0
vt 0.6741761 1 0
vt 0.6741761 1.785626e-14 0
vt 0.6524982 1 0
vt 0.6524982 1.992908e-14 0
vt 0.6305944 1 0
vt 0.6305944 1.985471e-14 0
vt 0.6088575 1 0
vt 0.6088575 2.224014e-14 0
vt 0.5869168 1 0
vt 0.5869168 2.194128e-14 0
vt 0.5654054 1 0
vt 0.5654054 2.227328e-14 0
vt 0.5436598 1 0
vt 0.5436598 1.991268e-14 0
vt 1 2.331035e-17 0
vt 0.522109 1.782312e-14 0
vt 0.5002901 1 0
vt 0.5002901 1.766683e-14 0
vt 0.4783015 1 0
vt 0.4783015 1.981642e-14 0
vt 0.4565129 1 0
vt 0.4565129 2.000682e-14 0
vt 0.435017 1 0
vt 0.435017 2.008361e-14 0
vt 0.4132269 1 0
vt 0.4132269 1.328122e-14 0
vt 0.3916282 1 0
vt 0.3916282 2.231321e-14 0
vt 0.3696306 1 0
vt 0.3696306 1.763658e-14 0
vt 0.3477918 1 0
vt 0.3477918 1.780329e-14 0
vt 0.3262321 1 0
vt 0.3262321 2.223271e-14 0
vt 0.3044855 1 0
vt 0.3044855 2.209759e-14 0
vt 0.2829773 1 0
vt 0.2829773 2.22704e-14 0
vt 0.2610471 1 0
vt 0.2610471 2.202807e-14 0
vt 0.2393107 1 0
vt 0.2393107 2.232947e-14 0
vt 0.217375 1 0
vt 0.217375 2.20503e-14 0
vt 0.1956876 1 0
vt 0.1956876 1.784504e-14 0
vt 0.1741476 1 0
vt 0.1741476 1.337336e-14 0
vt 0.1524657 1 0
vt 0.1524657 8.848431e-15 0
vt 0.130561 1 0
vt 0.130561 8.810852e-15 0
vt 0.1088249 1 0
vt 0.1088249 8.884288e-15 0
vt 0.08688459 1 0
vt 0.08688459 1.315122e-14 0
vt 0.06537455 1 0
vt 0.06537455 1.334917e-14 0
vt 0.04362665 1 0
vt 0.04362665 8.842884e-15 0
vt 0.522109 1 0
vt -4.614573e-20 1 0
#end 94 textures vertices 

#begin 92 normals 
vn 0 1 0
vn 0 1 0
vn 0 1 0
vn 0 1 0
vn 0 1 0
vn 0 1 0
vn 0 1 0
vn 0 1 0
vn 0 1 0
vn 0 1 0
vn 0 1 0
vn 0 1 0
vn 0 1 0
vn 0 1 0
vn 0 1 0
vn 0 1 0
vn 0 1 0
vn 0 1 0
vn 0 1 0
vn 0 1 0
vn 0 1 0
vn 0 1 0
vn 0 1 0
vn 0 1 0
vn 0 1 0
vn 0 1 0
vn 0 1 0
vn 0 1 0
vn 0 1 0
vn 0 1 0
vn 0 1 0
vn 0 1 0
vn 0 1 0
vn 0 1 0
vn 0 1 0
vn 0 1 0
vn 0 1 0
vn 0 1 0
vn 0 1 0
vn 0 1 0
vn 0 1 0
vn 0 1 0
vn 0 1 0
vn 0 1 0
vn 0 1 0
vn 0 1 0
vn 0 1 0
vn 0 1 0
vn 0 1 0
vn 0 1 0
vn 0 1 0
vn 0 1 0
vn 0 1 0
vn 0 1 0
vn 0 1 0
vn 0 1 0
vn 0 1 0
vn 0 1 0
vn 0 1 0
vn 0 1 0
vn 0 1 0
vn 0 1 0
vn 0 1 0
vn 0 1 0
vn 0 1 0
vn 0 1 0
vn 0 1 0
vn 0 1 0
vn 0 1 0
vn 0 1 0
vn 0 1 0
vn 0 1 0
vn 0 1 0
vn 0 1 0
vn 0 1 0
vn 0 1 0
vn 0 1 0
vn 0 1 0
vn 0 1 0
vn 0 1 0
vn 0 1 0
vn 0 1 0
vn 0 1 0
vn 0 1 0
vn 0 1 0
vn 0 1 0
vn 0 1 0
vn 0 1 0
vn 0 1 0
vn 0 1 0
vn 0 1 0
vn 0 1 0
#end 92 normals 

#begin 46 faces
usemtl Default
f 1/94/1 2/2/2 3/3/3 4/4/4 
f 1/1/1 5/5/5 6/6/6 2/47/2 
f 6/6/6 5/5/5 7/7/7 8/8/8 
f 8/8/8 7/7/7 9/9/9 10/10/10 
f 10/10/10 9/9/9 11/11/11 12/12/12 
f 12/12/12 11/11/11 13/13/13 14/14/14 
f 14/14/14 13/13/13 15/15/15 16/16/16 
f 16/16/16 15/15/15 17/17/17 18/18/18 
f 18/18/18 17/17/17 19/19/19 20/20/20 
f 20/20/20 19/19/19 21/21/21 22/22/22 
f 22/22/22 21/21/21 23/23/23 24/24/24 
f 24/24/24 23/23/23 25/25/25 26/26/26 
f 26/26/26 25/25/25 27/27/27 28/28/28 
f 28/28/28 27/27/27 29/29/29 30/30/30 
f 30/30/30 29/29/29 31/31/31 32/32/32 
f 32/32/32 31/31/31 33/33/33 34/34/34 
f 34/34/34 33/33/33 35/35/35 36/36/36 
f 36/36/36 35/35/35 37/37/37 38/38/38 
f 38/38/38 37/37/37 39/39/39 40/40/40 
f 40/40/40 39/39/39 41/41/41 42/42/42 
f 42/42/42 41/41/41 43/43/43 44/44/44 
f 44/44/44 43/43/43 45/45/45 46/46/46 
f 46/46/46 45/45/45 47/93/47 48/48/48 
f 48/48/48 47/93/47 49/49/49 50/50/50 
f 50/50/50 49/49/49 51/51/51 52/52/52 
f 52/52/52 51/51/51 53/53/53 54/54/54 
f 54/54/54 53/53/53 55/55/55 56/56/56 
f 56/56/56 55/55/55 57/57/57 58/58/58 
f 58/58/58 57/57/57 59/59/59 60/60/60 
f 60/60/60 59/59/59 61/61/61 62/62/62 
f 62/62/62 61/61/61 63/63/63 64/64/64 
f 64/64/64 63/63/63 65/65/65 66/66/66 
f 66/66/66 65/65/65 67/67/67 68/68/68 
f 68/68/68 67/67/67 69/69/69 70/70/70 
f 70/70/70 69/69/69 71/71/71 72/72/72 
f 72/72/72 71/71/71 73/73/73 74/74/74 
f 74/74/74 73/73/73 75/75/75 76/76/76 
f 76/76/76 75/75/75 77/77/77 78/78/78 
f 78/78/78 77/77/77 79/79/79 80/80/80 
f 80/80/80 79/79/79 81/81/81 82/82/82 
f 82/82/82 81/81/81 83/83/83 84/84/84 
f 84/84/84 83/83/83 85/85/85 86/86/86 
f 86/86/86 85/85/85 87/87/87 88/88/88 
f 88/88/88 87/87/87 89/89/89 90/90/90 
f 90/90/90 89/89/89 91/91/91 92/92/92 
f 92/92/92 91/91/91 4/4/4 3/3/3 
#end 46 faces

#ZOMPROPERTIES_04{
#ZOMPROPERTIES_04 table {Mesh table {Edges table {ConstrainedH ints { 0 3 0 r 2 1 2 1 0 2 3 2 1 r 3 3 1 4 3 4 1 5 3 5 
#ZOMPROPERTIES_04 1 6 3 6 1 7 3 7 1 8 3 8 1 9 3 9 1 10 3 10 1 11 3 11 1 12 3 12 1 13 3 13 1 14 3 14 1 15 3 15 1 16 3 1
#ZOMPROPERTIES_04 6 1 17 3 17 1 18 3 18 1 19 3 19 1 20 3 20 1 21 3 21 1 22 3 22 1 23 3 23 1 24 3 24 1 25 3 25 1 26 3 2
#ZOMPROPERTIES_04 6 1 27 3 27 1 28 3 28 1 29 3 29 1 30 3 30 1 31 3 31 1 32 3 32 1 33 3 33 1 34 3 34 1 35 3 35 1 36 3 3
#ZOMPROPERTIES_04 6 1 37 3 37 1 38 3 38 1 39 3 39 1 40 3 40 1 41 3 41 1 42 3 42 1 43 3 43 1 44 3 44 1 45 3 45 1 } Cons
#ZOMPROPERTIES_04 trainedV ints { 0 2 r 2 0 1 3 r 2 1 r 2 2 3 2 4 2 5 2 6 2 7 2 8 2 9 2 10 2 11 2 12 2 13 2 14 2 15 2 
#ZOMPROPERTIES_04 16 2 17 2 18 2 19 2 20 2 21 2 22 2 23 2 24 2 25 2 26 2 27 2 28 2 29 2 30 2 31 2 32 2 33 2 34 2 35 2 
#ZOMPROPERTIES_04 36 2 37 2 38 2 39 2 40 2 41 2 42 2 43 2 44 2 } } SymPlane table {Point vector3d 0 0 0 Normal vector3
#ZOMPROPERTIES_04 d 1 0 0 Threshold double 0.01 Enabled bool false EdgeID int -1 SymEdgeID int -1 UPos double 0.5 Loca
#ZOMPROPERTIES_04 lMode bool false } RootGroup CSubMeshGroup {Children table {Tile_0_0 CSubMeshGroup {Children table {
#ZOMPROPERTIES_04 } BBoxUV box3d 0 0 0 0 0 0 BBox3D box3d 0 0 0 0 0 0 Area3D double 0 AreaUV double 1 IsRoot bool fals
#ZOMPROPERTIES_04 e Properties table {Selected bool false Box box3d 0 1 0 1 0 1 U int 0 V int 0 NU int 0 NV int 0 Pack
#ZOMPROPERTIES_04  table {BoxFrameEdit bool false Behavior string "Free" Locked bool false Scaling table {Optimization
#ZOMPROPERTIES_04  string "Fill" } } Hotspot table {} } IsTile bool true PolyIDs ints { 0 45 44 43 42 41 40 39 38 37 3
#ZOMPROPERTIES_04 6 35 34 33 32 31 30 29 28 27 26 25 24 23 22 21 20 19 18 17 16 15 14 13 12 11 10 9 8 7 6 5 4 3 2 1 } 
#ZOMPROPERTIES_04 } } BBoxUV box3d 0 0 0 0 0 0 BBox3D box3d 0 0 0 0 0 0 Area3D double 0 AreaUV double 0 IsRoot bool tr
#ZOMPROPERTIES_04 ue Properties table {Selected bool false Box box3d 0 1 0 1 0 1 U int 0 V int 0 NU int 1 NV int 1 Pac
#ZOMPROPERTIES_04 k table {Rotate table {Initial string "Automatic" Min double 0 Max double 90 Step double 0 } Resolut
#ZOMPROPERTIES_04 ionDivisor int 0 MapResolution int 2048 UsePixelUnit bool true PaddingSize double 0.0078125 MarginSi
#ZOMPROPERTIES_04 ze double 0.00390625 PaddingSizePx int 16 MarginSizePx int 8 Scaling table {TexelDensity double 1024
#ZOMPROPERTIES_04  Mode int 2 Optimization string "Fill" } MaxMutations int 1 Strategy string "Efficient" Sides string
#ZOMPROPERTIES_04  "Closed" } Hotspot table {} Tiling vector3d 1 1 1 TileRatioMode string "1:1" } IsTile bool false Po
#ZOMPROPERTIES_04 lyIDs ints { } } Maps table {Pin CDataMap {PrimType string "Vertex" Size int 1 DefaultValue double 0
#ZOMPROPERTIES_04  ScaleType string "Normalized" MergeMode string "Max" MinValue double 0 MaxValue double 1 Data doubl
#ZOMPROPERTIES_04 es { 0 1 r 44 0 1 r 46 0 1 } } Density CDataMap {PrimType string "Polygon" Size int 1 DefaultValue d
#ZOMPROPERTIES_04 ouble 1 ScaleType string "Log" MergeMode string "Average" MinValue double 0.1 MaxValue double 4 Data
#ZOMPROPERTIES_04  doubles { r 46 1 } } Protect CDataMap {PrimType string "Vertex" Size int 1 DefaultValue double 0 Sc
#ZOMPROPERTIES_04 aleType string "Normalized" MergeMode string "Average" MinValue double -1 MaxValue double 1 Data dou
#ZOMPROPERTIES_04 bles { r 94 0 } } } } }
#ZOMPROPERTIES_04}


#ZOMSCENE_01{
#ZOMSCENE_01 CScene {Settings table {AxisSystem table {UpVector string "y" } Unit string "cm" TexelDensityDisplay
#ZOMSCENE_01 Unit string "tx/cm" } Root CXForm {} }
#ZOMSCENE_01}

#begin 0 fatal error vertex (that RizomUV cannot handle)
#end 0 fatal error vertex (that RizomUV cannot handle)

#begin 0 error vertex
#end 0 error vertex
