{
	"asset":{
		"generator":"Khronos glTF Blender I/O v5.0.21",
		"version":"2.0"
	},
	"scene":0,
	"scenes":[
		{
			"name":"Scene",
			"nodes":[
				0
			]
		}
	],
	"nodes":[
		{
			"mesh":0,
			"name":"decor_002"
		}
	],
	"materials":[
		{
			"doubleSided":true,
			"name":"TV",
			"pbrMetallicRoughness":{
				"baseColorFactor":[
					0.03139999881386757,
					0.03139999881386757,
					0.53329998254776,
					1
				],
				"metallicFactor":0,
				"roughnessFactor":0.8211145401000977
			}
		}
	],
	"meshes":[
		{
			"name":"decor_002",
			"primitives":[
				{
					"attributes":{
						"POSITION":0,
						"NORMAL":1,
						"TEXCOORD_0":2
					},
					"indices":3,
					"material":0
				}
			]
		}
	],
	"accessors":[
		{
			"bufferView":0,
			"componentType":5126,
			"count":1582,
			"max":[
				0.07569295167922974,
				0.16705621778964996,
				0.055204786360263824
			],
			"min":[
				-0.07166585326194763,
				-7.555790216429159e-05,
				-0.05598298832774162
			],
			"type":"VEC3"
		},
		{
			"bufferView":1,
			"componentType":5126,
			"count":1582,
			"type":"VEC3"
		},
		{
			"bufferView":2,
			"componentType":5126,
			"count":1582,
			"type":"VEC2"
		},
		{
			"bufferView":3,
			"componentType":5123,
			"count":8256,
			"type":"SCALAR"
		}
	],
	"bufferViews":[
		{
			"buffer":0,
			"byteLength":18984,
			"byteOffset":0,
			"target":34962
		},
		{
			"buffer":0,
			"byteLength":18984,
			"byteOffset":18984,
			"target":34962
		},
		{
			"buffer":0,
			"byteLength":12656,
			"byteOffset":37968,
			"target":34962
		},
		{
			"buffer":0,
			"byteLength":16512,
			"byteOffset":50624,
			"target":34963
		}
	],
	"buffers":[
		{
			"byteLength":67136,
			"uri":"Jars.bin"
		}
	]
}
